<svg xmlns="http://www.w3.org/2000/svg" viewBox="0 0 32 32"><path fill="#d1f6ff" d="M21.8,2.47V6.33a1,1,0,0,1-1,1H11.17a1,1,0,0,1-1-1V2.47a1,1,0,1,1,1.93,0v2.9h7.74V2.47a1,1,0,1,1,1.93,0Z"/><path fill="#333" d="M20.83,7.8H11.17A1.47,1.47,0,0,1,9.7,6.33V2.47a1.47,1.47,0,1,1,2.93,0v2.4h6.74V2.47a1.47,1.47,0,1,1,2.93,0V6.33A1.47,1.47,0,0,1,20.83,7.8ZM11.17,2a.47.47,0,0,0-.47.47V6.33a.47.47,0,0,0,.47.47h9.66a.47.47,0,0,0,.47-.47V2.47a.47.47,0,1,0-.93,0v2.9a.51.51,0,0,1-.5.5H12.13a.51.51,0,0,1-.5-.5V2.47A.47.47,0,0,0,11.17,2Z"/><path fill="#de1263" d="M26.63,29.53a1,1,0,0,1-1,1H6.33a1,1,0,0,1-1-1A22,22,0,0,1,9.48,16.7l.9-1.26a1,1,0,0,1,.79-.41h9.66a1,1,0,0,1,.8.41l.89,1.26A22,22,0,0,1,26.63,29.53Z"/><path fill="#333" d="M25.67,31H6.33a1.46,1.46,0,0,1-1.46-1.47A22.43,22.43,0,0,1,9.08,16.41l.9-1.26a1.47,1.47,0,0,1,1.19-.62h9.66a1.5,1.5,0,0,1,1.2.61l.9,1.26a22.5,22.5,0,0,1,4.2,13.13A1.46,1.46,0,0,1,25.67,31ZM11.17,15.53a.48.48,0,0,0-.38.2L9.89,17a21.5,21.5,0,0,0-4,12.54.47.47,0,0,0,.46.47H25.67a.46.46,0,0,0,.46-.47,21.44,21.44,0,0,0-4-12.54l-.9-1.26a.49.49,0,0,0-.39-.2Z"/><path fill="#fe3345" d="M22.77,6.43l-1,9.67a1,1,0,0,1-1,.87H11.17a1,1,0,0,1-1-.87l-1-9.67a1,1,0,0,1,.24-.74,1,1,0,0,1,.72-.32H21.8a1,1,0,0,1,1,1.06Z"/><path fill="#333" d="M20.83,17.47H11.17a1.47,1.47,0,0,1-1.46-1.32l-1-9.67a1.42,1.42,0,0,1,.36-1.13,1.47,1.47,0,0,1,1.09-.48H21.8a1.45,1.45,0,0,1,1.46,1.61l-1,9.67A1.48,1.48,0,0,1,20.83,17.47ZM10.2,5.87A.43.43,0,0,0,9.86,6a.48.48,0,0,0-.12.36l1,9.67a.47.47,0,0,0,.46.42h9.66a.46.46,0,0,0,.47-.42l1-9.67h0A.48.48,0,0,0,22.15,6a.45.45,0,0,0-.35-.15Z"/></svg>