<svg xmlns="http://www.w3.org/2000/svg" width="32" height="32" viewBox="0 0 8.467 8.467"><g transform="translate(501.6 -449.89) scale(.26458)"><path fill="#afd4b2" d="m -1872.5348,1704.8708 1.7218,10e-5 c 0.831,1e-4 1.5,0.669 1.5,1.5 v 22 c 0,0.831 -0.669,1.5 -1.5,1.5 h -18 c -0.831,0 -1.5,-0.669 -1.5,-1.5 v -22 c 0,-0.831 0.669,-1.4999 1.5,-1.5 l 1.7782,-10e-5 z"/><path fill="#9ad1a5" style="line-height:normal;font-variant-ligatures:normal;font-variant-position:normal;font-variant-caps:normal;font-variant-numeric:normal;font-variant-alternates:normal;font-feature-settings:normal;text-indent:0;text-align:start;text-decoration-line:none;text-decoration-style:solid;text-decoration-color:#000;text-transform:none;text-orientation:mixed;shape-padding:0;isolation:auto;mix-blend-mode:normal" d="m -1886.3126,1704.8717 v 3 c 0,1.097 0.9029,2 2,2 h 3.5371 v 19.8906 h 1 v -19.8906 h 4.4629 c 1.097,0 2,-0.903 2,-2 v -3 z" color="#000" font-family="sans-serif" font-weight="400" overflow="visible"/><path fill="#484666" style="line-height:normal;font-variant-ligatures:normal;font-variant-position:normal;font-variant-caps:normal;font-variant-numeric:normal;font-variant-alternates:normal;font-feature-settings:normal;text-indent:0;text-align:start;text-decoration-line:none;text-decoration-style:solid;text-decoration-color:#000;text-transform:none;text-orientation:mixed;shape-padding:0;isolation:auto;mix-blend-mode:normal" d="m -1888.8128,1704.371 c -1.0993,10e-5 -2,0.9006 -2,2 v 22 c 0,1.0993 0.9006,2 2,2 h 18 c 1.0993,0 2,-0.9007 2,-2 v -22 c 0,-1.0994 -0.9007,-1.9999 -2,-2 -1.11,0 -3.3301,0 -3.3301,0 v 1 c 0,0 2.2201,0 3.3301,0 0.5627,10e-5 1,0.4373 1,1 v 22 c 0,0.5626 -0.4374,1 -1,1 h -18 c -0.5627,0 -1,-0.4374 -1,-1 v -22 c 0,-0.5627 0.4373,-0.9999 1,-1 h 3.1015 v -1 z" color="#000" font-family="sans-serif" font-weight="400" overflow="visible"/><path fill="#484666" d="m -1884.3122,1702.3714 c -0.8224,0 -1.5,0.6776 -1.5,1.5 v 4 c 0,0.8223 0.6776,1.5 1.5,1.5 h 4.5215 4.4785 c 0.8223,0 1.5,-0.6777 1.5,-1.5 v -4 c 0,-0.8224 -0.6777,-1.5 -1.5,-1.5 z" color="#000" font-family="sans-serif" font-weight="400" overflow="visible" style="line-height:normal;font-variant-ligatures:normal;font-variant-position:normal;font-variant-caps:normal;font-variant-numeric:normal;font-variant-alternates:normal;font-feature-settings:normal;text-indent:0;text-align:start;text-decoration-line:none;text-decoration-style:solid;text-decoration-color:#000;text-transform:none;text-orientation:mixed;shape-padding:0;isolation:auto;mix-blend-mode:normal"/><path fill="#d1e2cd" d="m -1883.9333,1703.3714 h 8.2402 l -4.1191,4.7363 z" color="#000" font-family="sans-serif" font-weight="400" overflow="visible" style="line-height:normal;font-variant-ligatures:normal;font-variant-position:normal;font-variant-caps:normal;font-variant-numeric:normal;font-variant-alternates:normal;font-feature-settings:normal;text-indent:0;text-align:start;text-decoration-line:none;text-decoration-style:solid;text-decoration-color:#000;text-transform:none;text-orientation:mixed;shape-padding:0;isolation:auto;mix-blend-mode:normal"/><path fill="#98d1b3" d="M-1874.8122 1703.8831v3.9883c0 .2856-.2144.5-.5.5h-3.4024zM-1884.8122 1703.885l3.9004 4.4864h-3.4004c-.2857 0-.5-.2144-.5-.5z" color="#000" font-family="sans-serif" font-weight="400" overflow="visible" style="line-height:normal;font-variant-ligatures:normal;font-variant-position:normal;font-variant-caps:normal;font-variant-numeric:normal;font-variant-alternates:normal;font-feature-settings:normal;text-indent:0;text-align:start;text-decoration-line:none;text-decoration-style:solid;text-decoration-color:#000;text-transform:none;text-orientation:mixed;shape-padding:0;isolation:auto;mix-blend-mode:normal"/><path fill="#484666" fill-rule="evenodd" style="line-height:normal;font-variant-ligatures:normal;font-variant-position:normal;font-variant-caps:normal;font-variant-numeric:normal;font-variant-alternates:normal;font-feature-settings:normal;text-indent:0;text-align:start;text-decoration-line:none;text-decoration-style:solid;text-decoration-color:#000;text-transform:none;text-orientation:mixed;shape-padding:0;isolation:auto;mix-blend-mode:normal" d="m -1880.3122,1708.6205 v 21.1421 h 1 v -21.1421 z" color="#000" font-family="sans-serif" font-weight="400" overflow="visible"/><path fill="#484666" d="m -1877.0622,1713.8705 a 0.50004994,0.50004994 0 0 0 -0.5,0.5 v 4.5 c 0,0.8223 0.6776,1.5 1.5,1.5 h 3 c 0.8223,0 1.5,-0.6777 1.5,-1.5 0,-1.4832 0.059,-3.0449 0,-4.5195 a 0.50004994,0.50004994 0 0 0 -0.498,-0.4805 z" color="#000" font-family="sans-serif" font-weight="400" overflow="visible" style="line-height:normal;font-variant-ligatures:normal;font-variant-position:normal;font-variant-caps:normal;font-variant-numeric:normal;font-variant-alternates:normal;font-feature-settings:normal;text-indent:0;text-align:start;text-decoration-line:none;text-decoration-style:solid;text-decoration-color:#000;text-transform:none;text-orientation:mixed;shape-padding:0;isolation:auto;mix-blend-mode:normal"/><path fill="#d1e2cd" d="m -1876.5622,1714.8705 h 4 c 0.032,1.2898 0,2.6514 0,4 0,0.2856 -0.2144,0.5 -0.5,0.5 h -3 c -0.2857,0 -0.5,-0.2144 -0.5,-0.5 z" color="#000" font-family="sans-serif" font-weight="400" overflow="visible" style="line-height:normal;font-variant-ligatures:normal;font-variant-position:normal;font-variant-caps:normal;font-variant-numeric:normal;font-variant-alternates:normal;font-feature-settings:normal;text-indent:0;text-align:start;text-decoration-line:none;text-decoration-style:solid;text-decoration-color:#000;text-transform:none;text-orientation:mixed;shape-padding:0;isolation:auto;mix-blend-mode:normal"/><path fill="#fff" style="line-height:normal;font-variant-ligatures:normal;font-variant-position:normal;font-variant-caps:normal;font-variant-numeric:normal;font-variant-alternates:normal;font-feature-settings:normal;text-indent:0;text-align:start;text-decoration-line:none;text-decoration-style:solid;text-decoration-color:#000;text-transform:none;text-orientation:mixed;shape-padding:0;isolation:auto;mix-blend-mode:normal" d="m -1876.5626,1714.8697 v 0.7637 h 4 c 0,-0.2509 0.01,-0.5174 0,-0.7637 z" color="#000" font-family="sans-serif" font-weight="400" opacity=".4" overflow="visible"/><path fill="#c1dec4" style="line-height:normal;font-variant-ligatures:normal;font-variant-position:normal;font-variant-caps:normal;font-variant-numeric:normal;font-variant-alternates:normal;font-feature-settings:normal;text-indent:0;text-align:start;text-decoration-line:none;text-decoration-style:solid;text-decoration-color:#000;text-transform:none;text-orientation:mixed;shape-padding:0;isolation:auto;mix-blend-mode:normal" d="m -1883.9337,1703.3717 4.1211,4.7363 4.1192,-4.7363 z m 0.4082,0.2344 h 7.4239 l -3.711,4.2675 z" color="#000" font-family="sans-serif" font-weight="400" overflow="visible"/></g></svg>