<svg xmlns="http://www.w3.org/2000/svg" viewBox="0 0 64 64"><g data-name="Layer 25"><rect width="60" height="22" x="2" y="30" fill="#e0e0e0" rx="3"/><path fill="#f5f5f5" d="M5,30a3,3,0,0,0-3,3V44H47a3,3,0,0,0,3-3V30Z"/><path fill="#f7c244" d="M52,34h0a4,4,0,0,1,4,4v4a0,0,0,0,1,0,0H48a0,0,0,0,1,0,0V38A4,4,0,0,1,52,34Z"/><path fill="#f9ce69" d="M50,41V34.55A4,4,0,0,0,48,38v4h1.82A3,3,0,0,0,50,41Z"/><circle cx="32" cy="26" r="14" fill="#518c46"/><path fill="#67ac5c" d="M32,12A14,14,0,0,0,19.37,32H37.86a3,3,0,0,0,3-3V15.16A14,14,0,0,0,32,12Z"/><rect width="48" height="6" x="8" y="46" fill="#d1d1d1"/><circle cx="26" cy="20" r="2" fill="#e0e0e0"/><path d="M59,29H46.7a14.82,14.82,0,0,0,.3-3,15,15,0,0,0-30,0,14.82,14.82,0,0,0,.3,3H5a4,4,0,0,0-4,4V49a4,4,0,0,0,4,4H59a4,4,0,0,0,4-4V33A4,4,0,0,0,59,29ZM32,13A13,13,0,1,1,19,26,13,13,0,0,1,32,13ZM55,51H9V47H55Zm6-2a2,2,0,0,1-2,2H57V46a1,1,0,0,0-1-1H8a1,1,0,0,0-1,1v5H5a2,2,0,0,1-2-2V33a2,2,0,0,1,2-2H17.87a15,15,0,0,0,28.25,0H59a2,2,0,0,1,2,2Z"/><rect width="8" height="2" x="7" y="41"/><path d="M52 33a5 5 0 0 0-5 5v4a1 1 0 0 0 1 1h8a1 1 0 0 0 1-1V38A5 5 0 0 0 52 33zm0 2a3 3 0 0 1 2.82 2H49.18A3 3 0 0 1 52 35zm-3 6V39h6v2zM29 31a5 5 0 0 0 10 0H37a3 3 0 0 1-6 0V25a3 3 0 0 1 6 0h2a5 5 0 0 0-10 0zM26 23a3 3 0 1 0-3-3A3 3 0 0 0 26 23zm0-4a1 1 0 1 1-1 1A1 1 0 0 1 26 19z"/></g></svg>