<svg xmlns="http://www.w3.org/2000/svg" width="128" height="128" fill="none" viewBox="0 0 128 128"><path fill="#53D6FF" fill-rule="evenodd" d="M51 35L27 53L67 99L107 53L83 35L67 35H51ZM67 35L83 53L67 99L51 53L67 35Z" clip-rule="evenodd"/><path stroke="#000" stroke-linecap="round" stroke-linejoin="round" stroke-width="2" d="M68 36L80 50 68 84M60 36L48 50 60 84"/><path stroke="#000" stroke-width="2" d="M23.4 49.2L22.54 49.845L23.2454 50.6562L63.2454 96.6562L64 97.524L64.7546 96.6562L104.755 50.6562L105.46 49.845L104.6 49.2L80.6 31.2L80.3333 31L80 31L48 31L47.6667 31L47.4 31.2L23.4 49.2Z"/><path stroke="#000" stroke-linecap="round" stroke-linejoin="round" stroke-width="2" d="M30 50H98"/></svg>