<?xml version="1.0" encoding="UTF-8"?><svg xmlns="http://www.w3.org/2000/svg" xmlns:xlink="http://www.w3.org/1999/xlink" contentScriptType="text/ecmascript" width="375" zoomAndPan="magnify" contentStyleType="text/css" viewBox="0 0 375 374.999991" height="374.999991" preserveAspectRatio="xMidYMid meet" version="1.0"><path stroke-linecap="butt" transform="matrix(0.75, 0, 0, 0.75, 37.500002, 151.49999)" fill="none" stroke-linejoin="miter" d="M 46.390625 85.000019 L 46.390625 8.192722 L 73.859377 8.192722 L 73.859377 17.406264 L 56.864584 17.406264 L 56.864584 41.520849 L 72.895835 41.520849 L 72.895835 50.734392 L 56.864584 50.734392 L 56.864584 75.786477 L 73.859377 75.786477 L 73.859377 85.000019 Z M 85.286461 85.000019 L 78.932294 8.192722 L 89.411461 8.192722 L 91.520837 40.161474 L 93.255212 75.786477 L 95.458337 75.786477 L 96.60417 40.161474 L 101.598962 8.687514 L 115.708338 8.687514 L 120.697922 40.161474 L 121.848964 75.786477 L 123.979172 75.786477 L 125.786464 40.161474 L 127.895839 8.192722 L 138.369798 8.192722 L 132.041673 85.000019 L 114.557296 85.000019 L 111.677088 61.677101 L 109.661463 17.520848 L 107.645838 17.520848 L 105.630213 61.677101 L 102.744796 85.000019 Z M 144.89584 85.000019 L 144.89584 74.052101 L 158.442716 74.052101 L 158.442716 85.000019 Z M 183.677093 85.770852 C 177.911467 85.770852 173.812509 84.536477 171.375009 82.067727 C 168.953133 79.598977 167.614592 75.520852 167.364592 69.833351 C 167.302092 67.583351 167.286467 65.406268 167.317717 63.296892 C 167.348967 61.187517 167.458342 58.984392 167.645842 56.687517 L 177.442717 56.687517 C 177.317717 59.312517 177.239592 61.906267 177.208342 64.468767 C 177.177092 67.015643 177.255217 69.411476 177.442717 71.661476 C 177.567717 73.583351 178.125009 74.989602 179.109384 75.880227 C 180.109384 76.770852 181.630218 77.218768 183.677093 77.218768 C 185.661468 77.218768 187.114593 76.770852 188.036468 75.880227 C 188.973968 74.989602 189.505218 73.583351 189.630218 71.661476 C 189.817718 69.473976 189.895843 67.505226 189.864593 65.755226 C 189.833343 63.989601 189.755218 61.927101 189.630218 59.567726 C 189.505218 57.70835 189.12501 56.109392 188.484385 54.765642 C 187.84376 53.421892 186.68751 52.52085 185.015634 52.067725 L 178.593759 50.4271 C 174.250009 49.348975 171.270842 47.468766 169.661467 44.781266 C 168.067717 42.093766 167.208342 38.442724 167.083342 33.833349 C 167.083342 32.098974 167.083342 30.343765 167.083342 28.562515 C 167.083342 26.76564 167.114592 25.000015 167.177092 23.26564 C 167.364592 17.578139 168.687508 13.515639 171.140634 11.078139 C 173.609384 8.640639 177.786467 7.421889 183.677093 7.421889 C 189.177093 7.421889 193.177093 8.640639 195.677093 11.078139 C 198.177094 13.515639 199.520844 17.578139 199.708344 23.26564 C 199.770844 24.875015 199.786469 26.812515 199.755219 29.07814 C 199.723969 31.343765 199.677094 33.630224 199.614594 35.942724 L 189.630218 35.942724 C 189.692718 33.505224 189.739593 31.093765 189.770843 28.70314 C 189.802093 26.29689 189.755218 23.875015 189.630218 21.437515 C 189.505218 17.796889 187.489593 15.973973 183.583343 15.973973 C 181.598968 15.973973 180.125009 16.427098 179.156259 17.333348 C 178.203134 18.223973 177.661467 19.593765 177.536467 21.437515 C 177.348967 23.500015 177.270842 25.567723 177.302092 27.645848 C 177.333342 29.723974 177.411467 31.786474 177.536467 33.833349 C 177.661467 35.942724 178.062509 37.609391 178.734384 38.828141 C 179.406259 40.046891 180.640634 40.875016 182.437509 41.312516 L 188.203135 42.671891 C 192.734385 43.750016 195.796885 45.687516 197.390635 48.484391 C 199.00001 51.265642 199.90626 54.95835 200.109385 59.567726 C 200.171885 61.614601 200.18751 63.375017 200.15626 64.843768 C 200.12501 66.312518 200.067719 67.973976 199.989594 69.833351 C 199.802094 75.520852 198.458344 79.598977 195.958343 82.067727 C 193.473968 84.536477 189.380218 85.770852 183.677093 85.770852 Z M 217.94272 85.000019 L 217.94272 17.406264 L 206.812511 17.406264 L 206.812511 8.192722 L 239.364596 8.192722 L 239.364596 17.406264 L 228.328137 17.406264 L 228.328137 85.000019 Z M 262.687515 85.770852 C 256.921889 85.770852 252.770847 84.552102 250.239597 82.114602 C 247.723972 79.677102 246.406263 75.614602 246.281263 69.927101 C 245.953138 54.380225 245.953138 38.796891 246.281263 23.17189 C 246.406263 17.546889 247.723972 13.515639 250.239597 11.078139 C 252.770847 8.640639 256.921889 7.421889 262.687515 7.421889 C 268.45314 7.421889 272.57814 8.640639 275.062515 11.078139 C 277.562516 13.515639 278.911474 17.546889 279.114599 23.17189 C 279.489599 38.859391 279.489599 54.442725 279.114599 69.927101 C 278.911474 75.614602 277.562516 79.677102 275.062515 82.114602 C 272.57814 84.552102 268.45314 85.770852 262.687515 85.770852 Z M 262.687515 77.218768 C 266.593765 77.218768 268.60939 75.395852 268.73439 71.755226 C 268.92189 66.442726 269.031265 60.911476 269.062515 55.161475 C 269.10939 49.39585 269.093765 43.630224 269.01564 37.864599 C 268.95314 32.098974 268.85939 26.593765 268.73439 21.343765 C 268.60939 17.765639 266.593765 15.973973 262.687515 15.973973 C 258.718764 15.973973 256.703139 17.765639 256.640639 21.343765 C 256.453139 26.593765 256.328139 32.098974 256.265639 37.864599 C 256.203139 43.630224 256.203139 49.39585 256.265639 55.161475 C 256.328139 60.911476 256.453139 66.442726 256.640639 71.755226 C 256.703139 75.395852 258.718764 77.218768 262.687515 77.218768 Z M 288.213558 85.000019 L 288.213558 8.192722 L 303.401059 8.192722 C 309.088559 8.192722 313.229185 9.411472 315.822935 11.848972 C 318.416685 14.286473 319.80731 18.255223 319.99481 23.755223 C 320.11981 27.270848 320.18231 30.375015 320.18231 33.062515 C 320.18231 35.750016 320.11981 38.661474 319.99481 41.802099 C 319.74481 48.973975 317.380226 53.58335 312.895851 55.630225 L 321.239602 85.000019 L 310.197934 85.000019 L 303.098976 57.343767 L 298.692725 57.343767 L 298.692725 85.000019 Z M 298.692725 48.130225 L 303.286476 48.130225 C 307.333351 48.130225 309.447934 46.20835 309.635434 42.364599 C 309.947934 35.973974 309.947934 29.60939 309.635434 23.26564 C 309.447934 19.35939 307.369809 17.406264 303.401059 17.406264 L 298.692725 17.406264 Z M 327.958352 85.000019 L 327.958352 8.192722 L 355.427104 8.192722 L 355.427104 17.406264 L 338.43752 17.406264 L 338.43752 41.520849 L 354.468771 41.520849 L 354.468771 50.734392 L 338.43752 50.734392 L 338.43752 75.786477 L 355.427104 75.786477 L 355.427104 85.000019 Z M 327.958352 85.000019 " stroke="rgb(32.939148%, 32.939148%, 32.939148%)" stroke-width="2.04" stroke-opacity="1" stroke-miterlimit="4"/></svg>