<svg xmlns="http://www.w3.org/2000/svg" viewBox="0 0 16 16"><path d="M10,0c-1.14258,0 -2.1958,0.463379 -3,1.28564c-0.804199,-0.822266 -1.85742,-1.28564 -3,-1.28564c-2.66309,0 -4,2.56445 -4,4c0,4.5 3.5,6.5 7,10c3.5,-3.5 7,-5.5 7,-10c0,-1.43555 -1.33691,-4 -4,-4Zm-2.18701,10.4893c-0.267578,0.244141 -0.538574,0.490723 -0.812988,0.744141v-8.2334c0.531616,-0.478882 1.3844,-1 2.15625,-1c1.65686,0 2.84375,1.34314 2.84375,3c-0.187073,2.17975 -1.62897,3.16046 -4.18701,5.48926Z" transform="translate(1 1)"/></svg>