<svg xmlns="http://www.w3.org/2000/svg" data-name="Layer 1" viewBox="0 0 128 128"><circle cx="70" cy="98" r="12"/><circle cx="20" cy="98" r="12"/><path d="M6.10234,62.89947A3.99986,3.99986,0,0,0,9.591,65.97906l76.51544,7.86273L84.91984,76.79a2.0483,2.0483,0,0,1-1.89,1.21h-77.03a2,2,0,0,0,0,4h77.03a5.96926,5.96926,0,0,0,5.59-3.71l21.67-53.56,16.05-2.76a1.99913,1.99913,0,0,0-.68005-3.94l-17.14,2.95a2.01978,2.01978,0,0,0-1.52,1.22l-3.96,9.8h-99.04A3.9995,3.9995,0,0,0,.0001,36.00512,4.04752,4.04752,0,0,0,.09983,36.91ZM89.66221,36.00005h3.9693L96.581,47.42638l-2.48163,6.41718L89.69987,36.8A2.00933,2.00933,0,0,1,89.66221,36.00005Zm-10,0h3.96936l6.95776,26.92-2.4787,6.40948L79.69987,36.8A2.00933,2.00933,0,0,1,79.66221,36.00005Zm-10,0h3.96936l8.47827,32.82a1.99394,1.99394,0,0,1,.04956.59509l-4.14417-.42584L69.69987,36.8A2.00933,2.00933,0,0,1,69.66221,36.00005Zm-10,0h3.9693l8.20837,31.79a1.99575,1.99575,0,0,1,.05084.56989l-4.152-.42664L59.69987,36.8A2.00933,2.00933,0,0,1,59.66221,36.00005Zm-9.99,0h3.9693l7.93835,30.76a1.99719,1.99719,0,0,1,.05206.54572l-4.15961-.42749L49.70988,36.8A2.00933,2.00933,0,0,1,49.67222,36.00005Zm-10,0h3.96924l7.6684,29.74a1.9994,1.9994,0,0,1,.05389.51056L47.19316,65.822,39.70988,36.8A2.00933,2.00933,0,0,1,39.67222,36.00005Zm-10,0h3.9693l7.40833,28.71a2.00194,2.00194,0,0,1,.05511.48639L36.92649,64.767,29.70988,36.8A2.00933,2.00933,0,0,1,29.67222,36.00005Zm-10,0h3.96924l7.13843,27.68a2.00709,2.00709,0,0,1,.0564.46118L26.65,63.711,19.70988,36.8A2.00933,2.00933,0,0,1,19.67222,36.00005Zm-10,0h3.96924l6.87842,26.66a2.01609,2.01609,0,0,1,.05817.42706l-4.19727-.43134L9.70988,36.8A2.00933,2.00933,0,0,1,9.67222,36.00005Z"/></svg>